<svg width="118" height="32" viewBox="0 0 118 32" fill="none" xmlns="http://www.w3.org/2000/svg">
<g clip-path="url(#clip0_23052_4399)">
<path d="M54.0918 14.8778H58.0076V21.3697H69.9244V14.8885H73.8662V31.6758H69.9427V24.5201H58.0345V31.6739H54.0918V14.8778Z" fill="#231F20"/>
<path d="M112.716 14.8759C112.716 14.9841 112.716 15.0806 112.716 15.178C112.716 16.5154 112.712 17.8537 112.722 19.1911C112.723 19.4192 112.668 19.5225 112.435 19.5752C111.309 19.8247 110.189 20.0957 109.067 20.3569C108.992 20.3745 108.914 20.3764 108.794 20.3901V17.9853H98.7803V28.579H108.783V26.1801C109.363 26.3137 109.897 26.4345 110.431 26.5583C111.112 26.7162 111.793 26.8771 112.474 27.034C112.616 27.0671 112.721 27.1013 112.72 27.2962C112.712 28.7135 112.716 30.1318 112.714 31.5491C112.714 31.5871 112.701 31.6261 112.691 31.6856H94.8135V14.8759H112.716Z" fill="#231F20"/>
<path d="M14.2354 24.7862C14.3769 23.8767 14.5087 23.0199 14.6445 22.1631C15.1277 19.1219 15.6128 16.0806 16.0951 13.0394C16.6024 9.84121 17.1067 6.64205 17.6131 3.4429C17.7757 2.4194 17.9423 1.39591 18.1011 0.372413C18.1309 0.181361 18.1666 0.00882838 18.4005 5.55495e-05C18.6546 -0.00871728 18.6998 0.176487 18.7316 0.375337C19.055 2.43305 19.3794 4.49076 19.7067 6.5475C20.1918 9.60824 20.6808 12.669 21.166 15.7297C21.6367 18.7027 22.1064 21.6748 22.5685 24.6488C22.5877 24.7735 22.5502 24.9295 22.4876 25.0406C21.243 27.2367 19.9916 29.4299 18.7383 31.6212C18.5275 31.9897 18.2994 31.9887 18.0886 31.6202C16.842 29.4368 15.5964 27.2523 14.3528 25.0669C14.296 24.9665 14.2633 24.8535 14.2354 24.7862Z" fill="#231F20"/>
<path d="M45.6448 17.9727V31.669H41.6895V17.9922H34.1631V14.9003H53.1713V17.9727H45.6448Z" fill="#231F20"/>
<path d="M82.3499 17.9756H74.8389V14.8964H93.8548V17.9591H86.3225V31.6866C86.1733 31.6866 86.0674 31.6866 85.9616 31.6866C84.9075 31.6866 83.8525 31.6885 82.7975 31.6866C82.2902 31.6856 82.3509 31.7431 82.3509 31.247C82.349 26.9736 82.3499 22.7013 82.3499 18.4289C82.3499 18.2914 82.3499 18.153 82.3499 17.9756Z" fill="#231F20"/>
<path d="M24.1429 31.9955C22.8809 31.9955 21.6199 31.9965 20.358 31.9955C19.9537 31.9945 19.8401 31.8044 20.0422 31.4467C21.2946 29.2437 22.5488 27.0408 23.8127 24.8437C23.881 24.7238 24.0389 24.6127 24.1737 24.5825C28.23 23.6847 32.2892 22.7947 36.3504 21.9165C36.4832 21.8872 36.6979 21.9428 36.7797 22.0403C36.9202 22.2079 36.7681 22.3688 36.6449 22.5052C34.7785 24.5883 32.912 26.6714 31.0456 28.7544C30.1455 29.7584 29.2417 30.7595 28.3484 31.7703C28.203 31.9341 28.0558 32.0013 27.8382 32.0004C26.6071 31.9906 25.375 31.9955 24.1429 31.9955Z" fill="#231F20"/>
<path d="M12.6856 31.9956C11.4438 31.9956 10.2021 32.0024 8.96131 31.9868C8.80826 31.9848 8.61574 31.8961 8.51274 31.7821C5.73087 28.695 2.95958 25.6002 0.185403 22.5063C0.0631552 22.3698 -0.0687194 22.2324 0.0410156 22.0355C0.158451 21.822 0.346156 21.8795 0.536748 21.9214C4.57576 22.8085 8.6167 23.6897 12.6538 24.5835C12.7953 24.6147 12.956 24.7414 13.0292 24.8691C14.2844 27.0477 15.5281 29.2331 16.7727 31.4175C16.9912 31.8016 16.8786 31.9956 16.4406 31.9956C15.1883 31.9965 13.9369 31.9956 12.6856 31.9956Z" fill="#231F20"/>
<path d="M115.386 29.6278H115.629C115.914 29.6278 116.144 29.5323 116.144 29.2984C116.144 29.0927 115.996 28.9562 115.671 28.9562C115.535 28.9562 115.44 28.9689 115.386 28.9826V29.6278ZM115.372 30.9038H114.857V28.6541C115.06 28.6131 115.345 28.5849 115.711 28.5849C116.131 28.5849 116.32 28.6541 116.483 28.7506C116.604 28.8451 116.7 29.0235 116.7 29.2438C116.7 29.4904 116.51 29.6824 116.24 29.7643V29.7926C116.455 29.8745 116.578 30.0392 116.646 30.3404C116.714 30.6835 116.754 30.8209 116.808 30.9038H116.253C116.186 30.8209 116.144 30.6153 116.076 30.354C116.036 30.1074 115.901 29.9973 115.617 29.9973H115.372V30.9038ZM114.004 29.7234C114.004 30.7244 114.736 31.5199 115.738 31.5199C116.714 31.5199 117.431 30.7244 117.431 29.738C117.431 28.7359 116.714 27.9269 115.725 27.9269C114.736 27.9269 114.004 28.7359 114.004 29.7234ZM118 29.7234C118 30.9993 117.012 32.0004 115.725 32.0004C114.452 32.0004 113.437 30.9993 113.437 29.7234C113.437 28.4757 114.452 27.4736 115.725 27.4736C117.012 27.4736 118 28.4757 118 29.7234Z" fill="#231F20"/>
</g>
<defs>
<clipPath id="clip0_23052_4399">
<rect width="118" height="32" fill="white"/>
</clipPath>
</defs>
</svg>
